<?xml version="1.0" encoding="UTF-8"?>
<svg version="1.1" xmlns="http://www.w3.org/2000/svg" width="1080" height="1080">
<path d="M0 0 C356.4 0 712.8 0 1080 0 C1080 356.4 1080 712.8 1080 1080 C723.6 1080 367.2 1080 0 1080 C0 723.6 0 367.2 0 0 Z " fill="#454AFE" transform="translate(0,0)"/>
<path d="M0 0 C0.96808594 -0.00773438 1.93617188 -0.01546875 2.93359375 -0.0234375 C12.67892804 1.04655615 21.34252211 4.29778783 30.1875 8.375 C32.39376041 9.36890039 34.60081692 10.36103515 36.80859375 11.3515625 C37.92862793 11.8559082 39.04866211 12.36025391 40.20263672 12.87988281 C45.5198566 15.24601089 50.88332338 17.49884684 56.25 19.75 C65.71428273 23.73104191 75.14682043 27.78074889 84.5625 31.875 C93.91818541 35.94207273 103.28782115 39.97281894 112.6875 43.9375 C124.16606393 48.77946662 135.63263136 53.64804123 147.0703125 58.5859375 C151.07249752 60.31354151 155.08435008 62.00937619 159.1171875 63.6640625 C160.72400504 64.3384304 162.33077957 65.01290076 163.9375 65.6875 C164.63810547 65.96424561 165.33871094 66.24099121 166.06054688 66.52612305 C172.4720942 69.26060013 176.09445063 73.73251114 179.4375 79.75 C181.41021366 86.10652178 181.41875514 92.27300038 178.5625 98.375 C174.59022382 105.37509509 169.87991861 108.35101741 162.5625 111.375 C161.59699219 111.78363281 160.63148438 112.19226563 159.63671875 112.61328125 C157.73300359 113.41081692 155.82464866 114.19744371 153.91015625 114.96875 C151.12071502 116.14051061 148.37999417 117.37092291 145.6328125 118.63671875 C138.62379746 121.83965144 131.50161291 124.75956659 124.375 127.6875 C123.02792007 128.24265726 121.68091439 128.79799474 120.33398438 129.35351562 C117.07767358 130.69608244 113.82037425 132.03623079 110.5625 133.375 C110.54791748 134.6753418 110.53333496 135.97568359 110.51831055 137.31542969 C110.45985095 142.19118226 110.38262519 147.06649575 110.30004883 151.94189453 C110.2670219 154.04240738 110.23892261 156.14300423 110.21606445 158.24365234 C109.99188121 178.3056681 108.19092245 192.9145452 93.9609375 208.06640625 C67.37470129 233.6567411 26.37613461 238.00612281 -8.578125 237.5625 C-22.05894605 237.26831951 -34.48035043 235.24216689 -47.4375 231.375 C-48.52546875 231.07722656 -49.6134375 230.77945313 -50.734375 230.47265625 C-71.37102036 224.60882897 -92.43545955 213.48226706 -103.4375 194.375 C-107.70926914 185.55796431 -108.58761928 177.63587422 -108.53515625 167.9453125 C-108.5337413 166.95498016 -108.53232635 165.96464783 -108.53086853 164.94430542 C-108.52529252 161.79617227 -108.51274442 158.64811148 -108.5 155.5 C-108.4949819 153.35937603 -108.49041954 151.21875094 -108.48632812 149.078125 C-108.47533094 143.84372551 -108.45861675 138.60936793 -108.4375 133.375 C-109.0321254 133.18173126 -109.62675079 132.98846252 -110.23939514 132.78933716 C-114.29340977 131.457653 -118.28947952 130.12331236 -122.18359375 128.3671875 C-122.95767578 128.02042969 -123.73175781 127.67367187 -124.52929688 127.31640625 C-125.30337891 126.96449219 -126.07746094 126.61257813 -126.875 126.25 C-128.07672852 125.71052734 -128.07672852 125.71052734 -129.30273438 125.16015625 C-134.93303571 122.62723214 -134.93303571 122.62723214 -137.4375 121.375 C-137.4375 147.115 -137.4375 172.855 -137.4375 199.375 C-135.7875 200.035 -134.1375 200.695 -132.4375 201.375 C-129.46108965 204.1409571 -126.62828746 207.36806272 -126.234375 211.51171875 C-126.15432 215.86804511 -126.09642511 219.23037302 -128.1875 223.125 C-128.6 224.1975 -129.0125 225.27 -129.4375 226.375 C-128.82938477 227.2510791 -128.22126953 228.1271582 -127.59472656 229.02978516 C-124.92299389 233.17284548 -124.57790957 236.3270981 -124.171875 241.1484375 C-124.08875061 241.98984283 -124.00562622 242.83124817 -123.91998291 243.69815063 C-123.74760052 245.47753735 -123.58335108 247.25772854 -123.42675781 249.03857422 C-123.19113259 251.70883308 -122.92996185 254.37557319 -122.6640625 257.04296875 C-122.17079065 262.1487005 -121.76679487 267.25612402 -121.4375 272.375 C-121.3614856 273.55382751 -121.3614856 273.55382751 -121.28393555 274.75646973 C-121.15996488 276.95513965 -121.07841574 279.15038382 -121.015625 281.3515625 C-120.9734082 282.59244629 -120.93119141 283.83333008 -120.88769531 285.11181641 C-121.59137034 289.28824641 -123.24628001 290.7029523 -126.4375 293.375 C-126.7675 293.705 -127.0975 294.035 -127.4375 294.375 C-131.78161305 294.64199576 -136.13157416 294.64631107 -140.48291016 294.67016602 C-142.66503532 294.68732337 -144.8456231 294.73118324 -147.02734375 294.77539062 C-148.41925969 294.78552243 -149.81118852 294.79403701 -151.203125 294.80078125 C-152.46930664 294.81536377 -153.73548828 294.82994629 -155.04003906 294.8449707 C-159.08038829 294.28606928 -160.64565639 293.31208222 -163.4375 290.375 C-165.51560928 286.62941891 -165.60735289 283.75509052 -165.265625 279.53515625 C-165.17941895 278.39981445 -165.09321289 277.26447266 -165.00439453 276.09472656 C-164.89981934 274.8878418 -164.79524414 273.68095703 -164.6875 272.4375 C-164.53643799 270.57496582 -164.53643799 270.57496582 -164.38232422 268.67480469 C-164.17421625 266.13256558 -163.96115729 263.59072695 -163.74316406 261.04931641 C-163.46233108 257.67348866 -163.21944445 254.29775525 -162.9921875 250.91796875 C-162.84974483 248.98692099 -162.70656158 247.05592766 -162.5625 245.125 C-162.48177246 243.81607788 -162.48177246 243.81607788 -162.39941406 242.48071289 C-161.97766188 237.32232051 -160.87839905 233.55025806 -158.25463867 229.0690918 C-157.20440018 227.24597763 -157.20440018 227.24597763 -157.625 224.4375 C-158.26264199 222.41694931 -158.26264199 222.41694931 -159.4375 221.375 C-160.67217116 209.20467002 -160.67217116 209.20467002 -157.125 204.1875 C-154.4375 201.375 -154.4375 201.375 -151.4375 199.375 C-150.4475 199.375 -149.4575 199.375 -148.4375 199.375 C-148.4375 171.985 -148.4375 144.595 -148.4375 116.375 C-150.7475 115.715 -153.0575 115.055 -155.4375 114.375 C-166.01134808 110.30547937 -173.8960515 105.9408218 -178.8125 95.4375 C-180.42111755 87.55527401 -179.74952066 81.44687322 -175.25390625 74.5625 C-169.03250847 66.38479867 -158.18864955 63.32237369 -149 59.5 C-146.71574861 58.54261387 -144.4319182 57.58422287 -142.1484375 56.625 C-141.54414413 56.37138702 -140.93985077 56.11777405 -140.31724548 55.85647583 C-135.33842072 53.76328324 -130.37454904 51.63624198 -125.4140625 49.5 C-124.64438644 49.16878143 -123.87471039 48.83756287 -123.08171082 48.49630737 C-120.01818482 47.17764225 -116.95477795 45.8587266 -113.89334106 44.53521729 C-105.71136273 40.99871297 -97.52766699 37.56264188 -89.1706543 34.45629883 C-86.54432565 33.41726269 -84.06687544 32.24018137 -81.5625 30.9375 C-76.40276025 28.26145994 -71.05497395 26.17880018 -65.63671875 24.09765625 C-62.17515313 22.7223409 -58.80940024 21.17505362 -55.43359375 19.6015625 C-48.62029501 16.43234701 -41.74147903 13.44748631 -34.81640625 10.53295898 C-32.80445187 9.68410445 -30.79683303 8.82549212 -28.7890625 7.96679688 C-9.80887876 -0.0781584 -9.80887876 -0.0781584 0 0 Z " fill="#F1F1F6" transform="translate(539.4375,216.625)"/>
<path d="M0 0 C3.56311517 1.67137958 7.18328904 3.14091958 10.84765625 4.5703125 C15.35094333 6.33747542 19.78451973 8.19137523 24.16015625 10.2578125 C31.57122122 13.73794763 39.11813018 16.88044588 46.66455078 20.05395508 C55.1470575 23.62631988 63.59669208 27.27049968 72.03515625 30.9453125 C81.89729361 35.23847354 91.78737797 39.45779047 101.71188354 43.60479736 C103.69786865 44.43495113 105.68316017 45.26674054 107.66821289 46.09912109 C112.998924 48.33395758 118.33096366 50.56469504 123.67578125 52.765625 C125.10835292 53.36652039 126.54067671 53.96800739 127.97265625 54.5703125 C129.11992188 55.0446875 130.2671875 55.5190625 131.44921875 56.0078125 C135.28660311 58.07648331 138.3747126 60.62442521 140.34765625 64.5703125 C141.04229574 71.51670743 141.04229574 71.51670743 138.3671875 75.57421875 C135.07521891 79.25450054 131.15496276 80.89431923 126.66015625 82.7578125 C125.80236572 83.12874023 124.9445752 83.49966797 124.06079102 83.88183594 C121.16355599 85.1288318 118.25638678 86.35038777 115.34765625 87.5703125 C113.11036456 88.5187944 110.87339544 89.46803749 108.63671875 90.41796875 C105.27578188 91.84381354 101.91374227 93.2664725 98.54614258 94.67651367 C92.61326811 97.16249925 86.737814 99.74135618 80.89086914 102.42285156 C77.24713746 104.06685069 73.55454754 105.57563388 69.84765625 107.0703125 C65.19859037 108.96245123 60.58300016 110.8807107 56.03515625 113.0078125 C50.92582166 115.37916779 45.70982282 117.43992463 40.47265625 119.5078125 C33.69472407 122.1851207 27.07050378 125.02043595 20.484375 128.140625 C16.36371781 130.01878257 12.16121109 131.66549905 7.94555664 133.31420898 C2.7034364 135.38216404 -2.38381704 137.72034557 -7.45703125 140.17578125 C-20.76726039 145.98476879 -33.10734355 147.18617864 -46.9453125 142.09765625 C-54.30402182 139.20486755 -61.49116462 135.9175683 -68.65234375 132.5703125 C-76.46527863 128.94530378 -84.28783609 125.37682853 -92.21484375 122.0078125 C-93.11960449 121.62141602 -94.02436523 121.23501953 -94.95654297 120.83691406 C-100.6451856 118.4113103 -106.35085005 116.02943805 -112.06640625 113.66796875 C-114.62221349 112.58310193 -117.13593604 111.43084563 -119.65234375 110.2578125 C-125.76197631 107.43455664 -132.02578297 105.00790422 -138.30859375 102.6003418 C-144.04096798 100.36085056 -149.3473824 97.68843492 -154.65234375 94.5703125 C-151.05259337 92.17047891 -147.79152722 91.77715358 -143.609375 91.16796875 C-142.40748787 90.98312172 -142.40748787 90.98312172 -141.18132019 90.79454041 C-138.61017813 90.40023913 -136.03766376 90.01599846 -133.46484375 89.6328125 C-130.11660279 89.12749674 -126.76903318 88.61790587 -123.421875 88.10546875 C-122.59669373 87.97935211 -121.77151245 87.85323547 -120.92132568 87.72329712 C-113.12846837 86.5174999 -105.39182656 85.07991769 -97.65234375 83.5703125 C-95.81122654 83.21599706 -93.97008421 82.86181209 -92.12890625 82.5078125 C-91.32453125 82.3521582 -90.52015625 82.19650391 -89.69140625 82.03613281 C-82.02445073 80.55670814 -74.35022704 79.13004941 -66.65234375 77.8203125 C-65.91709473 77.69269531 -65.1818457 77.56507813 -64.42431641 77.43359375 C-54.24966299 75.73662649 -54.24966299 75.73662649 -49.71484375 78.9453125 C-43.07982905 83.60480948 -36.77362651 83.93467563 -28.90234375 83.9453125 C-27.96390625 83.96980469 -27.02546875 83.99429688 -26.05859375 84.01953125 C-18.22169883 84.05200457 -10.41535092 82.58109413 -4.58984375 76.9453125 C-1.51275782 73.17340072 -1.24747509 70.58756794 -1.30859375 65.8203125 C-1.86839035 62.1561893 -3.78084768 60.75514647 -6.65234375 58.5703125 C-7.60109375 57.8484375 -8.54984375 57.1265625 -9.52734375 56.3828125 C-15.46878579 52.93677612 -21.24770383 52.2054179 -27.96484375 52.2578125 C-29.08415283 52.26518433 -29.08415283 52.26518433 -30.22607422 52.27270508 C-38.54855554 52.44876104 -45.31167639 54.1867985 -52.1796875 58.99609375 C-53.9006175 60.62926086 -53.9006175 60.62926086 -54.765625 63.6328125 C-56.65234375 66.5703125 -56.65234375 66.5703125 -58.52124023 67.2878418 C-60.98126773 67.74177702 -63.41158167 68.02536902 -65.90234375 68.2578125 C-67.73604031 68.47877718 -69.56937602 68.70275636 -71.40234375 68.9296875 C-72.30339844 69.03474609 -73.20445312 69.13980469 -74.1328125 69.24804688 C-77.42877009 69.66962285 -80.65368878 70.31378167 -83.90234375 71.0078125 C-90.15169825 72.30332852 -96.41802978 73.40526885 -102.71484375 74.4453125 C-103.72095703 74.611521 -104.72707031 74.77772949 -105.76367188 74.94897461 C-110.29025201 75.69395676 -114.81761148 76.43411527 -119.34521484 77.17285156 C-139.32898448 80.40577831 -139.32898448 80.40577831 -159.18847656 84.31445312 C-175.30367136 87.72776613 -175.30367136 87.72776613 -183.40234375 83.4453125 C-184.02238281 83.14882813 -184.64242188 82.85234375 -185.28125 82.546875 C-189.90791621 80.24815242 -195.27784002 77.31931997 -197.65234375 72.5703125 C-198.16903786 66.36998322 -197.7878619 63.54861397 -193.65234375 58.5703125 C-190.99936927 57.02929088 -188.59159566 55.84914113 -185.77734375 54.6953125 C-184.51506958 54.15173096 -184.51506958 54.15173096 -183.22729492 53.59716797 C-180.04398634 52.23441929 -176.84842021 50.90284458 -173.65234375 49.5703125 C-170.68651368 48.32265055 -167.72227941 47.07120928 -164.7578125 45.8203125 C-159.82977183 43.74242844 -154.90056571 41.66741182 -149.96777344 39.60083008 C-139.48602248 35.20705068 -129.04771154 30.73275369 -118.6652832 26.10791016 C-113.08100167 23.62209187 -107.46520966 21.23319851 -101.81787109 18.89428711 C-96.65893283 16.73657292 -91.53556542 14.49760799 -86.40899658 12.26431274 C-81.14710215 9.97404285 -75.87958934 7.69667826 -70.61254883 5.41827393 C-69.32127977 4.85968628 -68.03009914 4.30089416 -66.73901367 3.74188232 C-62.58924754 1.94581757 -58.43449561 0.16170632 -54.27734375 -1.6171875 C-53.22144043 -2.07432129 -52.16553711 -2.53145508 -51.07763672 -3.00244141 C-32.4250628 -10.94800841 -18.17112993 -8.78749661 0 0 Z " fill="#464BFE" transform="translate(568.65234375,236.4296875)"/>
<path d="M0 0 C13.39518639 5.25243891 26.61722191 10.82928229 39.79589844 16.60107422 C45.73016105 19.19200113 51.67655853 21.75435376 57.625 24.3125 C58.76195312 24.80395508 59.89890625 25.29541016 61.0703125 25.80175781 C78.52384474 33.30004809 96.1161334 40.67118677 115.125 33.9375 C117.42832036 32.98607012 119.71958772 32.00509866 122 31 C123.39247351 30.43500596 124.78711863 29.87534222 126.18359375 29.3203125 C132.68718543 26.72106191 139.10332077 23.99158339 145.4375 21 C150.60622127 18.56498684 155.85186998 16.46894793 161.1875 14.4375 C166.78464618 12.30451003 172.17370861 10.05093954 177.484375 7.265625 C180.76873419 5.61324553 184.124855 4.14199419 187.5 2.6875 C188.6859375 2.17574219 189.871875 1.66398437 191.09375 1.13671875 C194 0 194 0 196 0 C196.64798929 13.76617238 196.50392871 24.68210864 187.3125 35.8125 C182.28075873 41.04248999 176.50407919 45.09477662 170.140625 48.5546875 C167.62088816 49.92844233 165.25246132 51.22050873 163 53 C162.07880436 56.21893503 162.07880436 56.21893503 163 59 C164.08522524 60.29821946 164.08522524 60.29821946 166.703125 60.25 C175.45849448 59.58608573 183.43054322 52.14097455 189.94140625 46.69921875 C192 45 192 45 195 43 C192.29533276 53.99898012 185.37860459 62.18983721 175.9296875 68.3125 C162.71916406 75.9217615 149.41030943 81.56020401 134.4375 84.6875 C133.47392578 84.89955078 132.51035156 85.11160156 131.51757812 85.33007812 C120.80982902 87.61892267 110.43706315 88.19496353 99.5 88.1875 C98.26910645 88.18669434 97.03821289 88.18588867 95.77001953 88.18505859 C86.05132317 88.12019097 76.60106106 87.47389262 67 86 C65.69095703 85.81824219 65.69095703 85.81824219 64.35546875 85.6328125 C43.4739628 82.14663263 19.86661132 72.91916071 6.5 55.8125 C4.3453466 52.67732317 2.40335069 49.54965175 1 46 C1.33 45.01 1.66 44.02 2 43 C2.52207031 43.49628906 3.04414063 43.99257813 3.58203125 44.50390625 C18.76286707 58.51494036 37.09190536 66.38191107 57 71 C57.77778809 71.19609863 58.55557617 71.39219727 59.35693359 71.59423828 C72.14942768 74.77093275 84.69719441 75.37153462 97.8125 75.375 C98.99039093 75.37785507 98.99039093 75.37785507 100.19207764 75.38076782 C113.44883753 76.2400373 113.44883753 76.2400373 125 72 C125.16666667 69 125.16666667 69 125 66 C123.84516769 64.61420122 123.84516769 64.61420122 120.68725586 64.93408203 C119.19638817 64.95443492 117.70557928 64.97938243 116.21484375 65.0078125 C114.56405867 65.02813699 112.91326001 65.04738041 111.26245117 65.06567383 C109.95804581 65.08133896 109.95804581 65.08133896 108.62728882 65.09732056 C73.70149869 65.45672663 37.82682511 62.20285172 10.59765625 37.8515625 C2.3161253 29.30786018 -0.40780687 20.4185936 -0.3125 8.75 C-0.24894136 5.82904201 -0.13739432 2.9188659 0 0 Z " fill="#474CFE" transform="translate(442,355)"/>
<path d="M0 0 C23.43 0 46.86 0 71 0 C71 5.61 71 11.22 71 17 C54.5 17 38 17 21 17 C21 25.58 21 34.16 21 43 C35.19 43 49.38 43 64 43 C64 48.28 64 53.56 64 59 C49.81 59 35.62 59 21 59 C21 68.57 21 78.14 21 88 C37.5 88 54 88 71 88 C71 93.61 71 99.22 71 105 C47.57 105 24.14 105 0 105 C0 70.35 0 35.7 0 0 Z " fill="#F2F2F6" transform="translate(330,759)"/>
<path d="M0 0 C1.76886777 1.49248218 3.44705451 2.97108657 5 4.6875 C5.763125 3.883125 6.52625 3.07875 7.3125 2.25 C11.62073557 -1.85785252 15.57810765 -1.6574664 21.2734375 -1.58984375 C25.14953489 -1.19557023 27.16140409 0.05660623 30 2.6875 C34.33870166 8.31608594 35.12705579 12.1267145 35.11352539 19.10839844 C35.11341209 21.05996857 35.11341209 21.05996857 35.11329651 23.05096436 C35.10819024 24.46626829 35.10297425 25.88157184 35.09765625 27.296875 C35.09579035 28.74847363 35.09436726 30.20007288 35.09336853 31.65167236 C35.08955688 35.46569569 35.07973815 39.27968073 35.06866455 43.09368896 C35.05842135 46.98823529 35.05386468 50.88278783 35.04882812 54.77734375 C35.03811465 62.41408195 35.02052882 70.05078072 35 77.6875 C29.06 77.6875 23.12 77.6875 17 77.6875 C16.97494385 75.91068848 16.9498877 74.13387695 16.92407227 72.30322266 C16.84025617 66.43981544 16.7519868 60.57648442 16.66066074 54.71319008 C16.60544085 51.15745791 16.55202237 47.60171749 16.50268555 44.04589844 C16.44591832 39.96019398 16.38137946 35.87464475 16.31640625 31.7890625 C16.29969376 30.50883209 16.28298126 29.22860168 16.26576233 27.90957642 C16.2358445 26.13796646 16.2358445 26.13796646 16.20532227 24.33056641 C16.18977798 23.28687897 16.1742337 22.24319153 16.15821838 21.1678772 C16.16152796 18.68608218 16.16152796 18.68608218 15 16.6875 C12.66705225 16.64508277 10.33297433 16.64657063 8 16.6875 C6.24466042 18.44283958 6.82953451 20.92363828 6.79467773 23.30883789 C6.77473251 24.51000748 6.75478729 25.71117706 6.73423767 26.94874573 C6.71752518 28.2560112 6.70081268 29.56327667 6.68359375 30.91015625 C6.66303042 32.25394847 6.64203412 33.59773412 6.62062073 34.94151306 C6.56533581 38.48424987 6.51595502 42.02704567 6.46777344 45.56988525 C6.41760513 49.1827115 6.36189475 52.79545172 6.30664062 56.40820312 C6.1989806 63.50122901 6.09806511 70.59433404 6 77.6875 C0.06 77.6875 -5.88 77.6875 -12 77.6875 C-12.02505615 75.91068848 -12.0501123 74.13387695 -12.07592773 72.30322266 C-12.15974383 66.43981544 -12.2480132 60.57648442 -12.33933926 54.71319008 C-12.39455915 51.15745791 -12.44797763 47.60171749 -12.49731445 44.04589844 C-12.55408168 39.96019398 -12.61862054 35.87464475 -12.68359375 31.7890625 C-12.70030624 30.50883209 -12.71701874 29.22860168 -12.73423767 27.90957642 C-12.75418289 26.72850311 -12.77412811 25.54742981 -12.79467773 24.33056641 C-12.81022202 23.28687897 -12.8257663 22.24319153 -12.84178162 21.1678772 C-12.83847204 18.68608218 -12.83847204 18.68608218 -14 16.6875 C-16.33294775 16.64508277 -18.66702567 16.64657063 -21 16.6875 C-22.75533958 18.44283958 -22.17046549 20.92363828 -22.20532227 23.30883789 C-22.22526749 24.51000748 -22.24521271 25.71117706 -22.26576233 26.94874573 C-22.28247482 28.2560112 -22.29918732 29.56327667 -22.31640625 30.91015625 C-22.33696958 32.25394847 -22.35796588 33.59773412 -22.37937927 34.94151306 C-22.43466419 38.48424987 -22.48404498 42.02704567 -22.53222656 45.56988525 C-22.58239487 49.1827115 -22.63810525 52.79545172 -22.69335938 56.40820312 C-22.8010194 63.50122901 -22.90193489 70.59433404 -23 77.6875 C-29.27 77.6875 -35.54 77.6875 -42 77.6875 C-42 51.9475 -42 26.2075 -42 -0.3125 C-36.06 -0.3125 -30.12 -0.3125 -24 -0.3125 C-23.67 1.9975 -23.34 4.3075 -23 6.6875 C-22.2575 5.73875 -21.515 4.79 -20.75 3.8125 C-15.73324881 -2.59779319 -7.2114159 -3.15499446 0 0 Z " fill="#F3F3F6" transform="translate(631,786.3125)"/>
<path d="M0 0 C4.9724744 4.17874048 8.01743774 9.71282056 9.08285522 16.13479614 C9.26074602 19.09123563 9.29153385 22.01110593 9.26171875 24.97265625 C9.27728569 26.58411781 9.27728569 26.58411781 9.29316711 28.22813416 C9.32264409 31.63158833 9.3195047 35.0339424 9.3125 38.4375 C9.32143164 41.84431871 9.33751812 45.25084924 9.3639679 48.65757751 C9.37872864 50.76784969 9.38277916 52.87823433 9.37419128 54.98854065 C9.37792252 55.95662155 9.38165375 56.92470245 9.38549805 57.92211914 C9.38374069 58.76021622 9.38198334 59.59831329 9.38017273 60.46180725 C9.71858464 64.48856094 10.74839511 68.43027799 11.625 72.375 C4.695 72.375 -2.235 72.375 -9.375 72.375 C-9.705 70.395 -10.035 68.415 -10.375 66.375 C-11.6125 67.13296875 -11.6125 67.13296875 -12.875 67.90625 C-22.07450474 73.21012869 -29.81694055 74.96259464 -40.375 73.375 C-47.96657035 70.98021344 -53.59439387 66.66739055 -57.6875 59.8125 C-60.42324296 53.90552847 -60.44317039 47.30720223 -58.75 41.07421875 C-55.93211386 34.59559659 -50.97669246 30.18384999 -44.73828125 27.05078125 C-34.3164811 23.16814982 -23.3241159 23.99169986 -12.375 24.375 C-12.48111329 22.93653346 -12.60258118 21.4991944 -12.73046875 20.0625 C-12.79645264 19.26199219 -12.86243652 18.46148438 -12.93041992 17.63671875 C-13.63384067 14.05819607 -15.52526717 12.49573141 -18.375 10.375 C-22.9331027 8.39982216 -28.09324925 8.93968843 -32.6875 10.5 C-36.06678025 12.46000397 -36.06678025 12.46000397 -37.375 18.375 C-43.975 18.375 -50.575 18.375 -57.375 18.375 C-57.375 10.31519268 -55.99939374 7.47009423 -50.87109375 1.67578125 C-37.54889697 -11.06858531 -14.58238737 -9.48798587 0 0 Z " fill="#F2F2F6" transform="translate(563.375,791.625)"/>
<path d="M0 0 C0.8863916 0.00161133 1.7727832 0.00322266 2.68603516 0.00488281 C9.2074537 0.1272719 14.50801329 0.9882569 20.1875 4.375 C21.30125 5.014375 22.415 5.65375 23.5625 6.3125 C28.49087397 10.18479383 32.68882743 15.30701882 33.47366333 21.70941162 C33.59687953 24.53605897 33.62857655 27.35035176 33.62890625 30.1796875 C33.64871803 31.73660812 33.64871803 31.73660812 33.66893005 33.32498169 C33.70971328 36.63334841 33.73145588 39.94143938 33.75 43.25 C33.77386681 46.55133392 33.80213469 49.85241123 33.84178162 53.15359497 C33.8659349 55.20369547 33.88095855 57.25393072 33.88539124 59.3041687 C33.94731421 65.02452886 34.66931131 69.86688897 36.1875 75.375 C36.1875 76.695 36.1875 78.015 36.1875 79.375 C29.2575 79.375 22.3275 79.375 15.1875 79.375 C14.5275 77.395 13.8675 75.415 13.1875 73.375 C11.640625 74.550625 11.640625 74.550625 10.0625 75.75 C2.60421594 81.41829589 -6.84529986 81.46934111 -15.8125 80.375 C-23.28206138 78.29743765 -28.4970294 73.71609966 -32.8125 67.375 C-35.56444944 61.75145114 -35.67484661 55.79856769 -34.16015625 49.78515625 C-32.04139057 43.73803532 -29.33392687 39.70455609 -23.8125 36.375 C-17.42186598 33.31261606 -11.50355044 31.2378275 -4.390625 31.27734375 C-3.36582031 31.28056641 -2.34101562 31.28378906 -1.28515625 31.28710938 C-0.22167969 31.29548828 0.84179688 31.30386719 1.9375 31.3125 C3.01644531 31.31701172 4.09539063 31.32152344 5.20703125 31.32617188 C7.86724383 31.33794273 10.52734365 31.35438601 13.1875 31.375 C12.87741116 29.77036551 12.56433713 28.16630769 12.25 26.5625 C12.07597656 25.66917969 11.90195312 24.77585937 11.72265625 23.85546875 C11.21008847 21.26102829 11.21008847 21.26102829 10.1875 18.375 C4.72024477 15.98307584 -2.10946118 15.66866911 -7.8125 17.375 C-10.94113283 19.74767131 -11.22583327 21.40833317 -12.8125 25.375 C-19.4125 25.375 -26.0125 25.375 -32.8125 25.375 C-31.76016248 15.90396234 -30.74456087 12.41195 -23.66015625 6.61328125 C-16.14587306 1.30832577 -9.05133779 -0.01704904 0 0 Z " fill="#F2F2F6" transform="translate(670.8125,620.625)"/>
<path d="M0 0 C24.75 0 49.5 0 75 0 C75 16.07945411 75 16.07945411 69.078125 24.10546875 C68.46289978 24.99502762 67.84767456 25.88458649 67.21380615 26.80110168 C65.25574057 29.61898006 63.25530828 32.40310399 61.25 35.1875 C59.30589282 37.94922007 57.37110842 40.71731598 55.43640137 43.48562622 C54.15686745 45.31411557 52.87342028 47.1398728 51.58605957 48.96286011 C46.90464165 55.61208763 42.47281139 62.38511615 38.19390869 69.29960632 C34.26705392 75.64501002 30.15074527 81.7738821 26 88 C42.83 88 59.66 88 77 88 C77 93.61 77 99.22 77 105 C51.59 105 26.18 105 0 105 C0 88.91541315 0 88.91541315 5.9921875 80.75390625 C6.61215607 79.85486069 7.23212463 78.95581512 7.87088013 78.02952576 C9.84242616 75.18489029 11.85671098 72.37410354 13.875 69.5625 C15.19052622 67.68375601 16.50305175 65.80290715 17.8125 63.91992188 C20.35930073 60.26475635 22.92072628 56.62064343 25.49511719 52.98486328 C30.13649994 46.41157483 34.56705405 39.71602412 39 33 C42.3 28.05 45.6 23.1 49 18 C24.745 17.505 24.745 17.505 0 17 C0 11.39 0 5.78 0 0 Z " fill="#F2F2F6" transform="translate(370,595)"/>
<path d="M0 0 C1.25562744 0.01353516 1.25562744 0.01353516 2.53662109 0.02734375 C12.56635203 0.30827766 19.32996717 3.21666055 26.6484375 10.16015625 C35.8440592 20.75511169 35.625 32.67466797 35.625 46.4375 C18.465 46.4375 1.305 46.4375 -16.375 46.4375 C-13.33688821 55.98296493 -13.33688821 55.98296493 -6.375 61.4375 C-0.70261426 64.15038014 5.27346701 64.39226858 11.28515625 62.6796875 C15.85124969 60.97160542 19.53622116 59.36867307 22.625 55.4375 C26.06928265 56.88531793 27.98630962 58.71444609 30.375 61.5625 C30.98859375 62.28695312 31.6021875 63.01140625 32.234375 63.7578125 C32.92273438 64.58925781 32.92273438 64.58925781 33.625 65.4375 C30.51677427 72.40473061 24.55396242 75.80665792 17.73828125 78.67578125 C7.58381872 82.33589251 -6.26792727 82.03699428 -16.08984375 77.6953125 C-26.53241547 71.94743542 -33.99442025 63.98528528 -37.375 52.4375 C-37.92227648 48.62603831 -37.99622812 44.90871028 -37.9375 41.0625 C-37.92726807 40.05243896 -37.91703613 39.04237793 -37.90649414 38.00170898 C-37.60063649 27.25163563 -34.78831467 19.0237919 -27.2578125 11.18359375 C-18.95440636 3.48313204 -11.413509 -0.14718206 0 0 Z " fill="#F3F3F6" transform="translate(497.375,620.5625)"/>
<path d="M0 0 C4.12601402 3.4596445 6.25961967 7.96205694 8 13 C8 14.65 8 16.3 8 18 C1.07 18 -5.86 18 -13 18 C-13.99 15.69 -14.98 13.38 -16 11 C-21.74924117 7.43547047 -27.52093233 7.07243188 -34.09375 8.43359375 C-36.28420521 9.06748046 -36.28420521 9.06748046 -39 11 C-40.32548832 14.44336774 -40.32548832 14.44336774 -40 18 C-35.58324888 23.63609959 -27.14198919 24.20675632 -20.5625 25.4375 C-9.78914967 27.5469672 -1.37582072 30.46375921 6 39 C8.62167561 44.19309545 8.77542359 49.3002369 8 55 C5.11435685 62.34414758 -0.57470313 67.01379816 -7.625 70.25 C-18.29820761 74.81888186 -32.80694852 74.77979834 -43.8125 71.375 C-52.30680061 67.89511582 -57.24456322 63.40263976 -61.96875 55.5625 C-63 53 -63 53 -63 47 C-56.4 47 -49.8 47 -43 47 C-42.01 49.31 -41.02 51.62 -40 54 C-34.02672174 58.02547013 -26.9987039 57.68215215 -20 57 C-16.902907 56.00107846 -15.30766992 55.30766992 -13 53 C-12.83318891 49.91652174 -12.83318891 49.91652174 -13 47 C-19.2050348 43.97559513 -25.21333594 42.05252464 -31.9375 40.5625 C-43.33981946 37.83929259 -52.01998603 34.95109863 -59 25 C-61.25461436 20.98090484 -61.39434974 17.57445694 -61 13 C-58.51326004 5.26347568 -54.3439625 -0.02313088 -47.1875 -3.8125 C-31.39350164 -10.97873209 -14.61041617 -9.05586446 0 0 Z " fill="#F1F1F6" transform="translate(744,792)"/>
<path d="M0 0 C18.29911246 -2.69894811 18.29911246 -2.69894811 24.15527344 1.57177734 C27.81161983 5.55760312 30.43167389 10.12131035 32.89941406 14.91113281 C34.40108079 17.76123497 36.16586356 20.35444837 38 23 C41.34873014 18.88947343 44.49875139 14.65478419 47.625 10.375 C48.11484375 9.70726562 48.6046875 9.03953125 49.109375 8.3515625 C51.1266823 5.59567821 53.10486756 2.84269867 55 0 C57.24658203 -0.34057617 57.24658203 -0.34057617 60.0078125 -0.29296875 C60.99394531 -0.28330078 61.98007812 -0.27363281 62.99609375 -0.26367188 C64.02863281 -0.23853516 65.06117188 -0.21339844 66.125 -0.1875 C67.68541016 -0.16719727 67.68541016 -0.16719727 69.27734375 -0.14648438 C71.85207627 -0.11105228 74.4257833 -0.06165221 77 0 C75.68890816 2.72864147 74.24887932 5.25010143 72.56640625 7.765625 C72.08719727 8.48379395 71.60798828 9.20196289 71.11425781 9.94189453 C70.60217773 10.70356934 70.09009766 11.46524414 69.5625 12.25 C69.03624023 13.03616699 68.50998047 13.82233398 67.96777344 14.63232422 C62.71122172 22.46693996 57.36912609 30.24224695 52 38 C57.44083508 46.69250346 63.16029841 55.17253386 68.97045898 63.62133789 C70.09308953 65.25522785 71.21260385 66.89125756 72.33203125 68.52734375 C72.98921143 69.48374756 73.6463916 70.44015137 74.32348633 71.42553711 C75.72406191 73.57626808 76.91994698 75.67670571 78 78 C58.76205057 79.952075 58.76205057 79.952075 52.81640625 75.75 C50.52352878 72.61108753 48.75939229 69.46416929 47 66 C45.53626655 63.70726639 43.98554868 61.48814267 42.4375 59.25 C41.2880845 57.50235071 40.14085544 55.75324924 39 54 C35.8211433 57.8852693 32.89071141 61.90044563 30 66 C28.73319849 67.79655487 27.46476467 69.58806564 26.15917969 71.35668945 C24.84173296 73.16035421 24.84173296 73.16035421 23.390625 75.91796875 C19.40033438 79.39317284 14.83435555 78.52219741 9.75 78.3125 C8.71875 78.28994141 7.6875 78.26738281 6.625 78.24414062 C4.08185935 78.18527163 1.54166887 78.10310065 -1 78 C7.33448895 64.7689988 16.11782456 51.86609237 25 39 C19.33822416 30.0025178 13.45863314 21.16309178 7.52148438 12.34570312 C6.49571289 10.81526367 6.49571289 10.81526367 5.44921875 9.25390625 C4.83393311 8.33939697 4.21864746 7.4248877 3.5847168 6.48266602 C2.23230906 4.36394251 1.06640667 2.27254481 0 0 Z " fill="#F2F2F6" transform="translate(415,786)"/>
<path d="M0 0 C6.93 0 13.86 0 21 0 C21 6.27 21 12.54 21 19 C30.57 19 40.14 19 50 19 C50 23.95 50 28.9 50 34 C40.43 34 30.86 34 21 34 C21.07422502 39.14200191 21.15725324 44.28233543 21.26245117 49.42358398 C21.29557767 51.17023899 21.32364737 52.91699788 21.34643555 54.66381836 C21.38020881 57.1838787 21.43253347 59.70299752 21.48828125 62.22265625 C21.49467117 62.99585709 21.5010611 63.76905792 21.50764465 64.56568909 C21.64563239 69.72599532 22.54103677 73.43055661 25 78 C28.72763877 80.48509251 30.6835905 80.23684899 35.125 80.1875 C35.79281494 80.18105469 36.46062988 80.17460938 37.14868164 80.16796875 C42.16081228 80.09040223 47.04001402 79.69613838 52 79 C52.84681133 84.08086796 53.09038099 88.84828377 53 94 C45.18046437 97.04829355 38.63819444 98.21943571 30.25 98.3125 C28.96609375 98.35600586 28.96609375 98.35600586 27.65625 98.40039062 C20.33304588 98.47251309 14.4133522 96.80589121 8.6953125 92.10546875 C1.44221834 83.24659007 -0.16852045 75.17033889 -0.09765625 63.8828125 C-0.0962413 63.02565643 -0.09482635 62.16850037 -0.09336853 61.28536987 C-0.08780022 58.5652101 -0.07525364 55.84513462 -0.0625 53.125 C-0.0574809 51.27343869 -0.05291871 49.42187609 -0.04882812 47.5703125 C-0.03869485 43.04681691 -0.01911339 38.52350209 0 34 C-5.61 34 -11.22 34 -17 34 C-17 29.05 -17 24.1 -17 19 C-11.39 19 -5.78 19 0 19 C0 12.73 0 6.46 0 0 Z " fill="#F2F2F6" transform="translate(566,603)"/>
<path d="M0 0 C3.88470807 1.29490269 4.82997946 2.53156137 7 6 C7.74597102 9.06123303 7.97248444 12.11178953 8.1875 15.25 C8.26154053 16.13026855 8.33558105 17.01053711 8.41186523 17.91748047 C8.9831756 24.9386008 9.40708356 31.97226657 9.75390625 39.0078125 C10.04200796 43.68146248 10.53407171 48.34071705 11 53 C3.41 53 -4.18 53 -12 53 C-12 47.38655867 -11.93945582 42.21703004 -11.4140625 36.69140625 C-11.35221771 36.03978012 -11.29037292 35.38815399 -11.22665405 34.71678162 C-11.09595105 33.35289178 -10.96309355 31.98920676 -10.828125 30.62573242 C-10.62581273 28.57075531 -10.43358206 26.51500368 -10.2421875 24.45898438 C-8.31345044 4.22921126 -8.31345044 4.22921126 -5.11572266 1.23657227 C-3 0 -3 0 0 0 Z " fill="#4A4FFE" transform="translate(397,448)"/>
<path d="M0 0 C1.10408203 0.01353516 1.10408203 0.01353516 2.23046875 0.02734375 C4.0287888 0.05069856 5.82693911 0.08656164 7.625 0.125 C8.53494638 12.57778477 8.53494638 12.57778477 6.46484375 16.09765625 C1.06316887 20.61516952 -4.96327043 21.65752177 -11.76953125 21.4921875 C-14.375 21.125 -14.375 21.125 -17.5625 19.1875 C-20.00170484 15.06608492 -20.42723871 11.80067363 -19.375 7.125 C-14.41440978 0.26771351 -7.83032928 -0.18407646 0 0 Z " fill="#494EFE" transform="translate(544.375,827.875)"/>
<path d="M0 0 C0.90994638 12.45278477 0.90994638 12.45278477 -1.16015625 15.97265625 C-2.6875 17.25 -2.6875 17.25 -6 19 C-6.7425 19.433125 -7.485 19.86625 -8.25 20.3125 C-13.63340521 21.6583513 -18.95715891 21.91719396 -24.0625 19.625 C-26.98040831 17.17772206 -26.98459105 16.15408946 -27.375 12.25 C-27.29922789 8.46139459 -26.39234044 5.98817906 -23.66015625 3.1875 C-17.11106846 -1.49702397 -7.60248806 -0.21150662 0 0 Z " fill="#464BFE" transform="translate(684,664)"/>
<path d="M0 0 C4.39029664 2.38695739 6.40829119 5.77003347 7.8125 10.5 C7.8125 11.82 7.8125 13.14 7.8125 14.5 C-2.7475 14.5 -13.3075 14.5 -24.1875 14.5 C-23.23397561 8.77885366 -22.79402689 6.75385222 -19.1875 2.5 C-13.02727855 -1.83893859 -7.08541524 -2.93370243 0 0 Z " fill="#474CFE" transform="translate(505.1875,638.5)"/>
<path d="M0 0 C-0.7265625 3.7890625 -0.7265625 3.7890625 -3.1875 5.6875 C-10.68893526 9.18816979 -20.26706574 9.14002262 -28.0625 6.5625 C-30.11308511 5.79492113 -32.04167153 4.97916424 -34 4 C-34 2.68 -34 1.36 -34 0 C-24.46226399 -7.15330201 -9.94343799 -5.24077673 0 0 Z " fill="#4B50FE" transform="translate(557,303)"/>
<path d="M0 0 C1.0625 1.875 1.0625 1.875 1.25 4.875 C0.0625 7.875 0.0625 7.875 -1.69140625 8.89453125 C-3.75656395 9.66658837 -5.80986683 10.29962838 -7.9375 10.875 C-8.9275 11.205 -9.9175 11.535 -10.9375 11.875 C-13.66081488 12.10688622 -16.18789269 12.00593368 -18.9375 11.875 C-20.9375 9.875 -20.9375 9.875 -21 6.4375 C-19.9375 2.875 -19.9375 2.875 -16.6875 1 C-4.54922161 -2.64148352 -4.54922161 -2.64148352 0 0 Z " fill="#EFEFF6" transform="translate(595.9375,414.125)"/>
<path d="M0 0 C1.8125 1.125 1.8125 1.125 3 3 C3.39365568 6.14924548 3.52854531 8.11909116 1.875 10.875 C-0.94283625 12.56570175 -2.78734627 12.53544229 -6 12 C-8.08975111 9.57319226 -9.06558553 8.11495408 -8.875 4.875 C-6.86608064 0.57017281 -4.77991349 -0.71698702 0 0 Z " fill="#4E53FE" transform="translate(399,425)"/>
</svg>
